<svg xmlns="http://www.w3.org/2000/svg" viewBox="0 0 554.12 487.42"><title>Asset 2</title><g id="Layer_2" data-name="Layer 2"><g id="Layer_1-2" data-name="Layer 1"><path d="M464,287.92c.85-.54,1.67-1.14,2.56-1.61a14.73,14.73,0,0,1,12.54-.54,9.45,9.45,0,0,1,1.57,1c-3.92,4.18-8.41,6.38-14.21,5.44,2.47,1.26,4.31,3,5,5.7.41,1.58-.38,4.6-1.7,5.58-2.56,1.88-4.19,1.75-5.77.71s-2.16-2.39-1.84-5c.63.6,1.08,1,1.48,1.43.93,1,1.89,1.93,3.25.72a2.58,2.58,0,0,0-.18-3.85c-2.24-2-5-2.09-7.76-1.74-1.52.2-2.39,1.15-3.36,2.37a22.27,22.27,0,0,1-14,8,27.6,27.6,0,0,1-18.76-3.43,30,30,0,0,1-11.09-11.08,3.75,3.75,0,0,0-.37-.44,12.13,12.13,0,0,1-2.14,2.49,11.64,11.64,0,0,1-3.06,1.05l-.33-.54c.25-.39.44-1.06.76-1.13,2.18-.45,2.19-2,2.1-3.71A4.05,4.05,0,0,0,406,285.7c-2.81-1.14-5.58-.74-8.48.8,3.45.55,5.69,2.36,6.54,5.39s-.67,6.39-3,7.55c-3.57,1.79-6.78.84-9.9-2.05.57,3.55,1.59,6.38,4.44,8.15a3.89,3.89,0,0,0,4.47-.38c1.12-.8,2.26-1.82,1.39-3.55-.1-.2.36-.66.58-1.05,1.78,1.89,1.84,3.6.3,6.11,3.08.58,6.18,1,9.17,1.79a26.51,26.51,0,0,1,14.14,9.21,25.92,25.92,0,0,1,5.64,11.69,23.65,23.65,0,0,1-1,13,5.31,5.31,0,0,0-.09,3.6c1,2.44,2.26,4.86,5.17,5.69A2.71,2.71,0,0,0,439,349.8c.31-1.71-1.07-2.1-2.28-2.48a15.63,15.63,0,0,0-2.13-.34c1.58-1.61,3-2,4.75-1.26s2.73,1.57,2.88,3.42c.2,2.52-.49,4.57-2.8,5.85a7.35,7.35,0,0,1-7.29-.12l-1.15-.57-1.61-1.62-2.59-5-2,2.34a4.53,4.53,0,0,1,.71,1.51c.44,6.76-2.88,11.55-8.46,14.35-1.49.75-1.95.47-2-1.2-.11-4.21,1.39-7.83,4.56-11.38-5.35,2.13-10.26,2.63-15.57.45l1.41,2.5-.36.46a21.31,21.31,0,0,1-2-1c-2.81-1.88-5.79-3.27-9.26-3-4.09.37-8,3.19-7.52,7.92a5.18,5.18,0,0,0,3.49,4.08c1.79.43,4.11-.39,4.84-2a3.46,3.46,0,0,0,.08-2.62c-.23-.5-1.38-.58-2.14-.78a5.7,5.7,0,0,0-1.34,0c.67-1.52,1.68-2.15,3-1.91,1.53.3,2.94,1,3.36,2.74,1.21,5.05-3.16,8.28-6.69,8.48a8,8,0,0,1-7.6-4.31,9.13,9.13,0,0,1,.24-9.78c2.85-4.81,9.7-6.77,15.15-4.2.33.16.67.27.6.5-1.29-2.89-3.05-5.67-3.76-8.7-1.29-5.56,0-12.08,5.28-15.33a4.42,4.42,0,0,1,1.48-.28c-1.35,2.19-2.87,3.87-3.53,5.85-2.26,6.8,0,12.84,5,16.47,3.63,2.6,7.74,2.36,11.85.77,6.15-2.39,11.07-8.64,10.63-15.52a21,21,0,0,0-11.41-17.82c-8.2-4.53-16.75-4-25.34-1.12a3.75,3.75,0,0,0-1.65,1,39.82,39.82,0,0,1,4.76-1,27.45,27.45,0,0,1,5.36.12c1.64.19,3.38.51,4,2.69-1.77-.24-3.35-.78-4.84-.6-6.92.83-13.24,3-17,9.45-2.49,4.3-1.05,9.76,3.58,11.13a4.59,4.59,0,0,0,5.63-2.59,4.11,4.11,0,0,0-2.34-5.24l-1.76-.77a3.45,3.45,0,0,1,4.3,0c4.64,3.43,3.22,9.32-1,11.5-6.23,3.25-12.47-1.21-13.56-7.46-.94-5.4,1.61-9.4,4.75-13.43a57,57,0,0,0-5.55,4c-4.48,4.09-9.09,8.15-10.95,14.24-1.18,3.83-1.33,7.55,1.91,10.64,1.91,1.83,4,2.37,6.07,1.44a5.9,5.9,0,0,0,3.4-5.52,6.27,6.27,0,0,0-4.06-4.89,31.67,31.67,0,0,0-3.66-.62c-.06-1.82,1.59-1.66,2.51-1.68,6-.08,10.5,5.88,7.93,11.55a8.7,8.7,0,0,1-9.34,5.51c-3.14-.25-7-3.18-8.15-6.45-.27-.75-.56-1.49-1-2.51a28.68,28.68,0,0,0,1.42,17.75c.12.32-.18.81-.29,1.22-.34-.17-.83-.25-1-.53a29.23,29.23,0,0,1-3.49-10.39,28,28,0,0,1,.58-11.39,34.74,34.74,0,0,1,6.41-12.65,76.05,76.05,0,0,1,8.78-9.91,47.16,47.16,0,0,1,21-11.47c.11,0,.18-.18.4-.4-4.5-3.61-6.18-8.35-5.43-14.19a134.42,134.42,0,0,1-43,41.76,129.87,129.87,0,0,1-56.93,18.22c2.4,3.65,4.39,7.11,6.79,10.26a55.7,55.7,0,0,0,15.12,14,87.21,87.21,0,0,0,8.38,4.46,8,8,0,0,0,3.36.55l173.46,0a5.27,5.27,0,0,1,2.9.64,3,3,0,0,1,1,2.39A1.82,1.82,0,0,1,496,387.7a9,9,0,0,0-1.16,0H59.15a4.59,4.59,0,0,1-2.4-.32c-.58-.38-1.26-1.61-1-2a6.79,6.79,0,0,1,2.35-2.26c.46-.29,1.26-.06,1.91-.06q84.69,0,169.39.07a23.09,23.09,0,0,0,12.52-3.2,61.34,61.34,0,0,0,13.74-10.65,66,66,0,0,0,10.81-15.39c-42.53-4.45-75.64-24.55-99.6-60.05.75,5.76-.86,10.53-5.38,14.12,2.9,1.13,5.86,2.06,8.64,3.38a53.67,53.67,0,0,1,21.45,18.32c3.07,4.46,5.84,9.05,6.85,14.51a30.2,30.2,0,0,1-3.23,19.95c-.18.34-.8.46-1.37.49,2.19-6.25,3-12.42,1.5-19-.63,1.43-1.13,2.78-1.79,4A9.54,9.54,0,0,1,183,354.53c-4.48-1-6.52-4.21-6.84-8.58a7.73,7.73,0,0,1,6.14-7.92,12.14,12.14,0,0,1,4.08,0c.4,0,.73.71,1,1.3-2.55,0-4.68.43-6.36,2.4a5.39,5.39,0,0,0,7.57,7.64c3.26-2.69,3.47-6.19,2.73-9.9s-2.92-6.53-5.15-9.42-8.72-8.43-11.31-9.6c1.21,2.22,3.07,4.7,4,7.49,2,6-1.25,12-6.29,13.52s-10-.57-10.79-6.65c-.28-2.15,1-3.92,2.7-5.2a4.58,4.58,0,0,1,4.89-.5c-.71.36-1,.57-1.4.71a5.16,5.16,0,0,0-3.49,3.94c-.27,1.41,1.32,3.42,3.08,4.22,1.95.89,3.6.17,5.09-1.06,4-3.31,3.14-8.54.13-12.08-4.25-5-10-7.07-16.41-7.42-1.22-.07-2.46.42-4.11.4a5.93,5.93,0,0,1,1.29-1.57c2.5-1.49,5.27-1.41,8-1.05,1.61.2,3.19.68,4.78,1l.14-.47a59.1,59.1,0,0,0-7.56-2.2c-6-.92-12-.9-17.63,1.79a22.23,22.23,0,0,0-13.08,16.83c-1.9,9.81,7.58,19,16.27,18.61,5-.2,9.63-3.38,11.26-9.49,1.28-4.83,1-9.55-3-13.32-.31-.29-.31-.9-.45-1.37a3.82,3.82,0,0,1,1.25.29c3.51,2.21,5,5.54,5.47,9.55a17.42,17.42,0,0,1-4.31,13.87c2.05-.33,4.4-1.12,6.7-1,6.45.28,11,4.84,10.74,10.77-.28,6.36-6.66,10.82-12.31,7.43a6.68,6.68,0,0,1-3.16-7.28,3.68,3.68,0,0,1,3.32-2.75c1-.06,2,.71,3.06,1.11l-.25.74H161c-1.57,0-2.25.89-1.84,2.45.57,2.18,2.42,3.27,5.08,3,1.7-.18,3.36-2.24,3.6-4.15.62-4.85-4-7.63-7.54-7.89-3.33-.25-6.22,1-9,2.7l-2.18,1.31-.43-.37,1.37-2.56a18.52,18.52,0,0,1-14.54-.12c1,2.62,2.35,5.43,3.26,8.37.38,1.22-.08,2.7-.15,4.06a23.32,23.32,0,0,1-3.34-1.35c-5-3-7-7.56-6.7-13.21a5.43,5.43,0,0,1,.81-1.68l-2.16-2-2.55,4.8-1.61,1.62c-1.73.51-3.43,1.37-5.18,1.46a5.73,5.73,0,0,1-6-7.18c.38-1.85,1.86-2.66,3.54-3.08a3.61,3.61,0,0,1,3.93,1.41,20.62,20.62,0,0,0-2.5.63c-1.07.42-2.24.87-1.73,2.43a2.74,2.74,0,0,0,3.35,1.77c3.91-1.12,6.44-6.21,5.12-10a23.21,23.21,0,0,1,.64-17.31c3.35-7.89,9.22-13,17.15-15.76a49.53,49.53,0,0,1,7.45-1.43c.94-.17,1.87-.31,2.82-.46-1.4-2.63-1.36-4.39.34-6.35.21.52.52.92.49,1.29a3.84,3.84,0,0,0,4.93,4.1c3-.87,3.94-3.35,4.92-5.84a17.87,17.87,0,0,0,.56-2.62c-3.26,2.91-6.64,4.06-10.19,1.86a6.28,6.28,0,0,1-2.71-7.35,7.23,7.23,0,0,1,6.29-5.36c-2.49-2.05-8.28-2-10.21.64a3.74,3.74,0,0,0,1.09,5.75c.41.23.65.75,1.07,1.27-2.83.45-3.94-.23-5.43-3-1.81,2.23-3.48,4.63-5.5,6.71a27.66,27.66,0,0,1-17,8.29,24.26,24.26,0,0,1-21.1-7,2.19,2.19,0,0,1-.54-.56,4.42,4.42,0,0,0-4.25-2.89,24.89,24.89,0,0,0-6.28,1.18,3.35,3.35,0,0,0-1.7,2.29,2.83,2.83,0,0,0,1,2.37c.46.33,1.7,0,2.32-.45s1-1.37,1.59-1.9c1,2.82.23,4.36-2.26,5.43a4.79,4.79,0,0,1-5.61-2,6.6,6.6,0,0,1,2.62-9.43,9,9,0,0,0,1.4-.94c-5.73.95-10.2-1.26-14.1-5.31,1.35-1.69,3.32-1.9,5.1-2.12,3.91-.47,7.64.16,10.79,2.81a2.59,2.59,0,0,0,.69.33L92.84,290l-2.74,1.62L95,292l-.66-2.74a19.06,19.06,0,0,1-2.16-.39A22.66,22.66,0,0,1,90,288c-.86-1-1.68-2.08-2.58-3.07-2.9-3.19-3.3-7.06-3.07-11.11.06-1.16.66-1.21,1.54-.73,4.21,2.33,7.11,5.66,8,10.88.44-7.29,3.57-11.93,7.16-14.59l-2.67-.29-.21-.41a12.86,12.86,0,0,1,1.44-1c3.61-1.82,6.79-4.06,8.18-8.1s-.74-8.38-3.52-9.09c-1.83-.47-3.71-.82-5.2.73a4.14,4.14,0,0,0-1.15,4.68c.5,1.25,1.25,2.29,2.61,2,.82-.19,1.46-1.16,2.09-2,1.25-.2,1.28.72,1,1.74-.68,2.56-4.26,3.72-6.47,2.05a6.85,6.85,0,0,1-2.94-6.27,7.58,7.58,0,0,1,5.67-7.09,9,9,0,0,1,10.3,3.64c2.75,4.31,2.87,7.86.24,12.34a40.53,40.53,0,0,1-3.63,4.56c7.43-.91,13.67,1.29,17.86,7.76,1.2,1.85,2.29,4.08,1.16,6.88a7.72,7.72,0,0,1-1-1.72c-1.24-5.1-4.79-7.69-9.56-9.05s-9.17-.57-12.76,3.11a12.61,12.61,0,0,0-3.36,7.1,17,17,0,0,0,3.5,13.56,15.46,15.46,0,0,0,9.16,5.4,22,22,0,0,0,19.41-4.63c6-4.82,9-11.33,10.65-18.62a18.54,18.54,0,0,0,.36-3.17c-3.06,9.05-5.91,12.88-8.85,11.54,4.78-4.48,5.5-10.33,5.34-16.34-.13-4.92-2.92-9.82-8.23-11a6.63,6.63,0,0,0-5.83,2.18,4.53,4.53,0,0,0-.33,5.34,4.05,4.05,0,0,0,5.91,1.08c.49-.35,1-.74,1.43-1.1l.51.28a5.27,5.27,0,0,1-.53,1.71,6.13,6.13,0,0,1-9.91-.36,7.45,7.45,0,0,1-.61-8.42,9.09,9.09,0,0,1,7.61-4.72c7.61-.68,12.93,6,13.54,12.64a7.43,7.43,0,0,0,.31.89,45.92,45.92,0,0,0-2.79-17.38,20.3,20.3,0,0,0-6.24-9.68c-2.77-2.25-6.36-3.57-9.61-1.81-2.45,1.33-4.46,4.32-2.37,7.75a5.4,5.4,0,0,0,7.64,1.67,15.68,15.68,0,0,0,2.43-2.33c.39-.4.77-.82,1.16-1.23l.66.34a15.42,15.42,0,0,1-1.11,3.17A8.25,8.25,0,0,1,117,244.55a9,9,0,0,1,8.11-10.69c1.75-.17,3.54,0,5.36,0-4.53-4.34-10.14-6.57-16.38-7.54-.61-1.4.3-1.48,1.3-1.38,6.1.57,11.78,2.23,16.79,6,6,4.48,9.17,10.8,12,17.41,3.56,8.19,4.31,16.79,3.82,25.54a77.64,77.64,0,0,1-1.42,8.57c5.57-2.36,10.54-1.23,15.4,2.84-20-41-20.12-81.45-.23-122-4.62,3.66-9.55,4.92-15.17,2.52a65.32,65.32,0,0,1,1.15,7.27,114.48,114.48,0,0,1,0,12.7,36.88,36.88,0,0,1-1.67,8.75c-2.55,8.07-5.84,15.85-12.39,21.57A26.87,26.87,0,0,1,116.72,223a6.13,6.13,0,0,1-1.32.17,2.93,2.93,0,0,1-1.58-.88c6.35-1.29,12.05-3.45,17-8.28-3.62.68-6.7.85-9.57-.9s-4.78-4.45-4.6-7.85,1.75-6.49,5.26-8,6.42-.56,9,1.62c1,.87,1.56,2.42,2.18,3.73.17.35-.19.94-.3,1.37a43.34,43.34,0,0,0-4.42-3.74,5.23,5.23,0,0,0-5.89.72,6,6,0,0,0-1.67,5.67,6.74,6.74,0,0,0,5,4c5,.58,8.39-2.12,10.81-5.78a36.19,36.19,0,0,0,5.57-17,63.47,63.47,0,0,0,.34-6.34,17,17,0,0,1-3.92,9,11.34,11.34,0,0,1-10.78,4.11,9,9,0,0,1-7.08-5.49c-1.79-3.93.42-9.34,4.63-10.17,2.28-.44,5.44.55,6.51,2.55a5.8,5.8,0,0,1,.2,1.75,6,6,0,0,1-1.41-.71c-2.58-2.45-4.69-1.49-6.3.26s-.91,5.18,1.13,6.64a7.26,7.26,0,0,0,7.51.2c3.76-2.3,5.37-5.84,5.65-10.06a24.85,24.85,0,0,0-2-11.77,30.07,30.07,0,0,0-3.21-4.65c1.4-.93,2.42.33,3.27,1.06,2.6,2.25,3.73,5.38,4.68,8.58.2.69.37,1.39.55,2.09l.56-.15a93.31,93.31,0,0,0-2.46-9.11c-2.33-6.17-6.05-11.36-11.9-14.71a21.34,21.34,0,0,0-13.67-3c-4,.51-7.61,1.68-10.51,4.39a16.32,16.32,0,0,0-5,10.6,15,15,0,0,0,3.53,11.62c3,3.68,9.18,4.4,13.85,2.68,4.25-1.57,7.33-4.18,8.44-8.75.11-.46.49-.86,1.24-1.28a7.56,7.56,0,0,1,.18,2.2,14.13,14.13,0,0,1-10.72,11.23,61.4,61.4,0,0,1-8.28,1.17,42.41,42.41,0,0,1,3.81,5.37c3.09,6-.33,13.87-7,15.1-2.87.54-7.22-.4-9.06-4.19a7.18,7.18,0,0,1,1.76-9.12c2.36-2.05,6.06-1.09,6.73,1.84a2.79,2.79,0,0,1-.83,2c-.49-1.58-1-2.76-2.82-2.4-1.34.26-2.61,2.5-2.3,4a4.62,4.62,0,0,0,3.6,3.77,5.72,5.72,0,0,0,5.62-2.16c2.39-3.85,1.64-7.72-1.22-11a15.5,15.5,0,0,0-6.49-4.59c-.37-.12-.62-.58-1.22-1.18l3.27-.24a18.88,18.88,0,0,1-7.21-14.81A15.14,15.14,0,0,1,86.18,175c-1.2.69-1.76.63-1.89-1-.52-6.68,2.37-11.46,8-14.74.46-.26,1.21,0,2,0l.72-3-5.24.27-1.61-.44c-2.81-1.16-5-2.79-5.6-6.09a6.85,6.85,0,0,1,2-5.63,4.53,4.53,0,0,1,5.5-.28c1.8,1.06,2.19,2.67,1.75,5.07a13.47,13.47,0,0,1-1.31-1.5c-.77-1.23-1.94-1.67-3.08-1a2.2,2.2,0,0,0-.74,3.14c1,1.94,5,3.34,7.8,2.78a6.75,6.75,0,0,0,4.1-2.68,22.3,22.3,0,0,1,14.43-7.79A27.37,27.37,0,0,1,135,148.19c2.83,2.26,4.83,5.58,7.21,8.41l.57.7c.91-2.49,2.4-3.94,5.47-3.31-.34.44-.51.9-.8,1-2.09.83-2.52,2.48-2.11,4.39a4.49,4.49,0,0,0,3.32,3.36c2.67.87,5.13.28,7.74-.93-3.33-1.07-6-2.59-6.44-6.34-.34-3,.59-5.4,3.32-6.75,3.45-1.72,6.55-.81,9.27,1.82.21-3.67-2.06-7.21-5-8.3-2.58-.95-5.28,1.47-5,4.25,0,.37-.28.77-.5,1.29-1.92-2.23-1.87-3.91-.28-6.25-3.66-.79-7.59-1.26-11.26-2.5-8-2.7-13.36-8.4-16.52-16.11a21.7,21.7,0,0,1,0-17.1,4.25,4.25,0,0,0,0-3.56c-1-2.38-2.26-4.65-4.87-5.58a3.59,3.59,0,0,0-2.64.14,2.93,2.93,0,0,0-1.3,2.13c0,.53.92,1.22,1.56,1.6a8.72,8.72,0,0,0,2.14.64c-.62,1.63-2.78,2.08-4.7,1a4.4,4.4,0,0,1-2.23-4.69,5.16,5.16,0,0,1,3.28-4.6,7.17,7.17,0,0,1,7.1.72,3.34,3.34,0,0,0,.86.28l1.62,1.61,2.49,5L129.33,98c-.15-.24-.63-.67-.68-1.15a14.19,14.19,0,0,1,8.68-14.6,11.23,11.23,0,0,1,1.59-.43c.64,4.83-.42,7.91-4.62,13.13,5.64-2.3,10.93-3,16.68.11L148.62,92l.55-.59,3,1.76c4,2.4,8.18,3.45,12.54.78a6.26,6.26,0,0,0,3.19-6.49c-.2-1.71-1.69-3.67-3.15-4-2-.46-4.45.38-5.21,2a3,3,0,0,0,0,2.41c.31.54,1.34.69,2.07.95a6.17,6.17,0,0,0,1.14.19c-.23.41-.37,1-.72,1.2-1.83,1.26-4.9-.13-5.38-2.38a6.11,6.11,0,0,1,2.47-6.66,7.17,7.17,0,0,1,7-1.28,8.87,8.87,0,0,1,6,8.94c0,3.87-3.15,8-7.06,9.34-3.6,1.27-7.08.82-10.92-.94,5.15,6.19,6.42,12.67,3.25,19.65-1,2.15-2.41,4.37-5.69,4.66a7.11,7.11,0,0,1,.87-1.27c5.11-4.22,4.28-13.58.93-18.08-4-5.36-11.21-6.25-17.25-2.57-5.75,3.51-9.14,9-8.34,15.23,1.1,8.47,5.64,14.8,13.66,18.14,8.19,3.41,16.41,2.6,24.52-.58a3.51,3.51,0,0,0,1.11-.72c-4.82,1.27-9.63,2.68-14.34-.22-.33-.2-.44-.76-.52-1.39,3.53,1.47,6.85.65,10.11-.43,5.07-1.67,9.63-4,12-9.25,1.9-4.19.08-9.16-3.87-10.37a4.63,4.63,0,0,0-5.82,3c-.72,2.06.39,4,2.76,5A12.16,12.16,0,0,1,169,119c-2.07,1.23-4.82.25-6.25-2.07a6.28,6.28,0,0,1-.07-6.66,7.37,7.37,0,0,1,6-3.88c6.08-.7,9.93,4.52,10.48,8.9.71,5.61-1.94,9.54-5.56,13.38,1.68-1.11,3.45-2.11,5-3.37,4.3-3.48,8.39-7.25,11-12.19,2.2-4.16,3.3-8.6.17-12.94a5.87,5.87,0,0,0-6.64-2.36,5.76,5.76,0,0,0-3.6,6.13c.35,2.34,3.28,4.7,5.8,4.81.58,0,1.15,0,1.73,0,0,1.25-1.55,2.18-3.08,1.92-4.35-.72-7.18-3.13-7.91-7.38-.63-3.7,2.62-9.29,7.76-9.72a10.27,10.27,0,0,1,10.82,7.54,13.39,13.39,0,0,0,.6,1.35A30.11,30.11,0,0,0,194,84.86a3.52,3.52,0,0,1,.07-1.28c.42.25,1,.4,1.22.77,5.2,10.22,4.9,20.26-1.06,30.09a54.58,54.58,0,0,1-11.05,13.68,59.78,59.78,0,0,1-9.29,6.61c-3.93,2.21-8.18,3.88-12.24,5.75,4.44,3.44,5.91,8.33,5,14.54C192.07,117.31,226.91,97,272,93.94c-7.58-4-8.29-6-9.77-11.48-3.76,2.62-7.47,5.53-11.48,7.94a43.16,43.16,0,0,1-18.2,6.26,112.78,112.78,0,0,1-11.89.75,26,26,0,0,1-17.68-7,62.09,62.09,0,0,1-5.18-5.57,14.16,14.16,0,0,1-1.41-2.57l.47-.44a6.22,6.22,0,0,1,1.26.9A29.3,29.3,0,0,0,212,92.27c-.93-2-2.09-4-2.91-6.18-1.63-4.32,1.62-10.58,7.2-11.26,5.89-.71,10.32,3.41,9.82,8.63-.17,1.73-1.27,3.39-2.07,5-.22.44-.93.63-1.42.94l-.38-.31a9.75,9.75,0,0,0,.45-1.55c.27-1.8.87-3.65.63-5.39-.35-2.48-2.85-3.87-5.71-3.74a5.24,5.24,0,0,0-4.66,4.3c-.94,4.15,2.47,7.65,5.71,8.92,5.36,2.11,10.71,1.24,15.94-.22a103,103,0,0,0,10.41-4c.32-.13.6-.38.83-.18a81.06,81.06,0,0,1-8.95.07c-3.85-.37-8.49-4.44-9.19-8.62a9.06,9.06,0,0,1,2.77-8.61A6.92,6.92,0,0,1,241.87,73c.57,1.92,0,3.57-1.69,5.07a4.52,4.52,0,0,1-.23-1.55c.53-2.76-.85-5-3.46-5.35-2-.31-4.49,1.75-4.93,3.89-.91,4.39,3.16,8.2,7.6,8.46s8.23-1.64,11.68-4.33,6.29-5.56,7.09-10.29a4.12,4.12,0,0,1,.39,5.28c-1.7,3-3.74,5.73-5.51,8.38,1.42-1.28,3.25-2.68,4.78-4.35a32.36,32.36,0,0,0,7.54-13.06c2.41-8.59.6-16.24-5.57-22.57-7.16-7.34-17.27-6.1-23.68.32-4.91,4.93-4.67,12.3.16,17.32,3.07,3.19,6.57,5,11.07,4.61.69-.07,1.36-.31,2-.35a6,6,0,0,1,1.42.28c-.32.39-.57,1-1,1.14a14.26,14.26,0,0,1-11.31-.41c-4.76-2.22-7.81-6-9.7-11.27-.27,5-2.34,8.63-6.2,11a9.53,9.53,0,0,1-10,.4,8.78,8.78,0,0,1-4.93-9.12,7.07,7.07,0,0,1,4.24-5.76,6.23,6.23,0,0,1,7.18.57,4,4,0,0,1,1.27,4.36A2.84,2.84,0,0,1,217,57.79a9,9,0,0,1,.67-1.41c1.07-1.46.53-2.89-1.23-3.21a4.49,4.49,0,0,0-4.7,2.28c-.8,1.43-.31,3.53.77,5,2.75,3.63,8.56,2.19,10.85-.89,2.58-3.49,3.06-7.46,2.67-11.63,0-.27,0-.55.52-1,.51.8,1,1.59,1.55,2.4,2-7.18,3.13-9,8-13-1.67.09-3.2.18-4.73.25-2.86.14-5.3-1.15-7.73-2.38-.84-.42-.9-1.06-.06-1.63,4.23-2.92,8.74-4.28,13.8-2.38a27.84,27.84,0,0,1,3.12,1.37c.91.48,1.79,1.09-.12,2.48l4.15-1.4-2.82-5.27.06.06a8.45,8.45,0,0,1,1.05-7.61,6.81,6.81,0,0,1,6.9-2.14A4.71,4.71,0,0,1,253,22.25c-.12,2-1.15,3.17-3.43,3.73.07-.46.16-.84.18-1.22a11.74,11.74,0,0,0,.07-3.18c-.07-.33-1.58-.79-2-.52a5.1,5.1,0,0,0-2.17,2.58c-.65,3.73,2.65,8.25,6.25,8.92,10.09,1.89,16,8.37,18.92,17.77,2.46,7.79,1.44,15.34-2.31,22.55-.25.49-.44,1-.68,1.55,2.85-.68,4.89.54,5.22,3.19a3.23,3.23,0,0,1-1.06-.2,4.06,4.06,0,0,0-6.22,3.18c-.17,2.77,2.34,6.69,4.94,7.7-1-3.88-.08-7.2,2.55-9a8,8,0,0,1,7.66.08c2.58,1.87,3.48,5.15,2.42,8.85,2.79-.92,5.56-5.58,4.86-8.16-.87-3.16-3.3-4.17-6.23-2.59a2.87,2.87,0,0,1-.91.12,3.54,3.54,0,0,1,4.69-3.28,109.83,109.83,0,0,1-3.24-10.73A26.87,26.87,0,0,1,286,44a23.24,23.24,0,0,1,14.61-11.14c.92-.23,1.85-.42,2.77-.62a1.21,1.21,0,0,1,.19,0c3-.47,6.14-7.42,4.42-9.93-.79-1.15-2-1.86-3.32-1.11s-1,2.17-.49,3.42c.15.33.32.66.74,1.52a7.7,7.7,0,0,1-2.13-.62,5,5,0,0,1-1.57-4.85,4.85,4.85,0,0,1,4.3-3.19c5.12-.14,8,3.52,6.88,8.63a3.35,3.35,0,0,0,.05.86c3.26-6.76,7.66-10.42,12.34-10.15a14,14,0,0,1-3.1,8.52,37.55,37.55,0,0,1-4.88,4.14l-1.15,1-3.62.39c.07-1,.14-2,.22-3.17-1,1.69-1.9,3.26-2.83,4.87l2.93,1a9.21,9.21,0,0,1,1.27-2.05,8.48,8.48,0,0,1,2-1.06c5.21-2.08,10-1.31,14.55,1.9,1.23.87,1,1.27-.14,2A16.31,16.31,0,0,1,317.62,36c4.54,3.65,7.74,7.64,8.18,13.54l1.61-2.66.51.13a9.94,9.94,0,0,1,.05,1.09c-.37,4.13.21,8.05,2.74,11.45,2.32,3.11,7.81,4.52,10.84.83a4.26,4.26,0,0,0,.72-4.78,4,4,0,0,0-4-2.49A3.61,3.61,0,0,0,336,54.43c-.27.36.35,1.39.57,2.11.11.35.25.69.37,1l-.41.5c-.74-.5-1.9-.86-2.14-1.54a5.88,5.88,0,0,1-.22-3.8c1.44-3.43,6.82-3.33,9.15-1.51,2.76,2.15,4,5,3.17,8.29a9.1,9.1,0,0,1-6.84,6.89c-5.82,1.61-11.38-2.47-13.2-7.47a29.06,29.06,0,0,1-.92-3.56c-1.45,2-2.91,4.86-5.09,6.93-4.38,4.17-9.66,5.79-15.64,3.66-.5-.18-.83-.85-1.24-1.28a5.24,5.24,0,0,1,1.65-.15,11.86,11.86,0,0,0,10.47-2.14c3.56-2.79,6.21-6.23,6.09-11.16a12.52,12.52,0,0,0-6.37-10.69c-7.08-4.39-14.64-4.18-20.94,2.1A21.38,21.38,0,0,0,288,60a27.84,27.84,0,0,0,7,16.33,58.49,58.49,0,0,0,6.49,6.49c-3-4.14-7.32-7.58-5.89-14,1.24,2.36,1.91,4.6,3.33,6.16,4.27,4.69,9,8.83,16,8.48,3.87-.2,7.29-2.85,7.76-6.61a4.72,4.72,0,0,0-1.89-4.65,4.25,4.25,0,0,0-4.42-.64c-1.86.78-2.69,2.63-2.31,4.94a2.29,2.29,0,0,1-.34,1.49,5,5,0,0,1-1.19-5.94,5.89,5.89,0,0,1,4.75-3.74c6.14-.74,8.85,3.23,9.49,8.1.47,3.54-3.25,8.87-7,10.1-4.49,1.49-4.7,1.69-11.64.61,3.32,1.34,6.56,2.95,10,4a32.84,32.84,0,0,0,12.45,1.67c4-.36,7.55-1.63,9.87-5.25a6.65,6.65,0,0,0-.07-7,5.47,5.47,0,0,0-6.71-1.68c-3,1.22-3.56,4.47-2.63,7.91a18.35,18.35,0,0,0,.91,2.21l-.42.43a7,7,0,0,1-1.63-1.16c-4.22-5.51-1-12.61,4.95-13.42,3.4-.47,6.28.34,8.4,2.83a9,9,0,0,1,1.41,10,43.3,43.3,0,0,1-2.8,4.69,29.84,29.84,0,0,0,14.1-9.61,5.17,5.17,0,0,1,1.49-.87l.54.7a58.36,58.36,0,0,1-5,6.3,29.29,29.29,0,0,1-12.28,7.41c-5.08,1.45-10.2,1.27-15.41.87a50.11,50.11,0,0,1-13.75-2.91,52.43,52.43,0,0,1-18.56-11.41l-1-1c-.94,5.94-4.22,9.79-9.68,12a132.27,132.27,0,0,1,105,60.74c-.54-5.75.68-10.74,5.54-14.33a72.27,72.27,0,0,1-7.77-3.1,82.69,82.69,0,0,1-11.38-6.84,52.16,52.16,0,0,1-15.9-20.11c-4-8.81-3.22-17.57,1.22-26.07.16-.31.73-.4,1.12-.6a3.35,3.35,0,0,1,.14,1.11c-.74,3.46-1.79,6.88-2.19,10.38-.26,2.33.4,4.76.68,7.44a40.09,40.09,0,0,1,2.32-4.6,9.57,9.57,0,0,1,10.18-4.23c3.46.6,6.35,4,6.86,7.83a8.34,8.34,0,0,1-6.08,8.67,12.39,12.39,0,0,1-4.08,0c-.43,0-.82-.63-1.2-.94a29.73,29.73,0,0,0,5.32-1.86,4.86,4.86,0,0,0,2.54-5.2,5.8,5.8,0,0,0-4.26-4.72c-1.76-.55-4.61.81-5.85,2.42-2.75,3.58-2.37,7.43-.81,11.22,2.48,6,7.13,10.34,12.14,14.28a34.26,34.26,0,0,0,4.84,3.09,15.52,15.52,0,0,1-5.89-11,10.71,10.71,0,0,1,4.61-9.79,9.16,9.16,0,0,1,9.79-.14,7,7,0,0,1,3.22,6.2,5.61,5.61,0,0,1-4.06,5.47,14.85,14.85,0,0,1-3,.3l-.14-.69a18.53,18.53,0,0,0,2.4-1.2c2.07-1.44,2.52-3.14,1.51-5.22a4.59,4.59,0,0,0-5.45-2.45c-3.91,1.12-5.8,6.17-4,10.34a14.6,14.6,0,0,0,7.35,7.47c3.44,1.65,7,3.19,10.94,3a29.86,29.86,0,0,0,4-.76c-.49,2.11-2.21,2.3-3.55,2.69-3.58,1-7.06.11-10.49-.9-.24-.07-.48-.14-.72-.19a5.41,5.41,0,0,0-.76.39c3.38,1,6.25,2.06,9.23,2.6a28.84,28.84,0,0,0,15.67-1.1c8-3.05,12.78-8.74,14.68-17.16,2.25-10-7.62-19.77-17-19-4.65.39-9.53,4.58-10.59,9.62-1.1,5.28-.7,10.23,4,14l-.11.52c-.46,0-1,.18-1.35,0-3.59-2.3-5.17-5.76-5.65-9.88a17.44,17.44,0,0,1,4.4-13.9c-1.55.36-2.91.74-4.29,1-6.6,1.29-13.94-3.6-13.27-11.32a8.71,8.71,0,0,1,6-7.55,7.59,7.59,0,0,1,8.5,2.89c1.9,2.42,1.76,7.07-2.12,7.92a3.53,3.53,0,0,1-2-.27c-.45-.2-.74-.79-1.1-1.21a6.52,6.52,0,0,1,1.42-.29,2,2,0,0,0,2-2.7c-.66-2.06-2.47-3-5.06-2.74-1.7.19-3.32,2.09-3.51,4-.58,5.81,5.5,8.89,10,7.81,2.46-.6,4.72-2,7.08-3,.56-.24,1.11-.51,1.66-.77l.5.46-2.09,2.87c5.46-2.71,10.77-2.44,16.17-.08-3.6-3.55-4.73-7.83-4.5-12.59,3.14-.44,8.17,3.84,9.64,8.32.81,2.48,1.48,5,.21,7.75l2,1.94,2.43-4.64c.54-.54,1.07-1.08,1.61-1.61a11.14,11.14,0,0,1,6.34-1.54,6.42,6.42,0,0,1,4.89,4.32,5,5,0,0,1-2.18,5.47c-1.93,1.12-4,.72-4.8-1a6.85,6.85,0,0,0,1.83-.33c1-.5,2.45-.84,1.89-2.53a3,3,0,0,0-3.54-1.88c-2.32.75-5.91,5.46-5.84,7.79a6,6,0,0,0,.66,1.94,21.12,21.12,0,0,1-.37,17.45c-4.26,9.61-11.61,15.45-22.14,17-1.84.27-3.7.38-5.66.57,1.64,2,2,4.17.08,6.85-.27-.76-.62-1.21-.52-1.52a2.47,2.47,0,0,0-.95-3.17c-1.4-.94-2.84-1.66-4.6-.82-3.36,1.6-4.21,4.64-4.87,8.35,3.14-3,6.46-3.95,10-2,2.53,1.42,3.38,3.94,3,6.8-.54,3.64-3.15,5.15-6.54,6.07,3,1.61,5.9,2,8.89.59a3.94,3.94,0,0,0,2.33-3.42c.17-1.69-.18-3-1.92-3.75-.37-.16-.64-.57-1.11-1,2.89-.69,3.88-.1,5.42,2.83,2.08-2.45,4.05-5.14,6.39-7.44,4.39-4.32,9.8-6.54,15.91-7.47a24.68,24.68,0,0,1,14.67,2.19,21,21,0,0,1,7.29,5.72c2.2,2.83,4.63,2.79,7.52,2.34,1.89-.29,3.65-.69,4.48-2.72a2.2,2.2,0,0,0-3.86-2.12l-1.29,1.7c-.53-3.21.37-4.8,2.86-5.71,1.81-.67,4.26.44,5.43,2.21,2.73,4.12-.39,9-4.06,10.06a2.63,2.63,0,0,0-.61.34l-1.55.42h-5.22c.19.94.44,2.11.72,3.46.72-1.35,1.44-1.06,2.54-.39,5.67,3.48,8,8.53,7.36,15a5.56,5.56,0,0,1-.4,1.07,15.29,15.29,0,0,1-9.2-11.35,19,19,0,0,1-7.2,14.61l2.75.22.22.48c-1.3.75-2.64,1.43-3.89,2.25-3.37,2.23-5.85,5.09-6.34,9.3-.52,4.44,4.11,8.14,8.19,6.52a4.15,4.15,0,0,0,1.7-6.48,2.84,2.84,0,0,0-2.36-.79c-.71.2-1.18,1.21-2.06,2.22-.21-.53-.76-1.23-.66-1.81.54-2.91,4.36-4,6.73-2a7.1,7.1,0,0,1,2.38,7.7,7.32,7.32,0,0,1-5.43,5.39c-6,1.64-11.06-2.38-12-8-.83-5,1-8.67,5.63-12.6-5,.38-9.49.1-13.41-2.52s-6.55-6.27-6.61-11.21l.54-.35a5.84,5.84,0,0,1,1,1.44c1.79,6,6.12,8.53,12,9.21,7.85.92,12.67-4.08,13.72-11.21a16.32,16.32,0,0,0-4.62-14.1c-2.54-2.73-5.93-4-9.61-4.63-8.7-1.42-15.64,1.92-21.3,8.18a31.46,31.46,0,0,0-7.23,15.31c-.41,2.1-.63,4.24-1,6.7,1-3.36,1.72-6.42,2.86-9.3,1.69-4.29,4.4-6.48,6-5.84-1.26,2.46-2.95,4.82-3.72,7.45-1.41,4.87-2.09,9.9.44,14.73a10.07,10.07,0,0,0,7,5.49c2,.44,5.1-1.18,6.1-3.13a4.44,4.44,0,0,0-.86-5.42,3.77,3.77,0,0,0-5.31-.07c-.45.38-1,.68-1.7,1.19a3.52,3.52,0,0,1,2.21-3.77c3.87-2,7.42,0,8.86,3.21,2.61,5.85-1.9,11.37-7.78,11.9-6.47.6-11.59-4.49-13.13-10.34-.27-1-.38-2.1-.66-3.14a38.44,38.44,0,0,0,2.09,15.46,64.19,64.19,0,0,0,3.59,7.93,11.44,11.44,0,0,0,6.93,5.68c3.7,1.11,7.22.34,8.9-3.34.84-1.81.07-4.39-1.62-6A4.87,4.87,0,0,0,426,200a49.15,49.15,0,0,0-4.78,3.65,3.24,3.24,0,0,1-.18-1.34c.85-3.46,4.16-5.52,7.21-5.81a8.36,8.36,0,0,1,8.45,5.36c2.88,7-3.5,12.83-8.78,12.51l-4.1-.21c2.13,3.28,8.88,6.53,17,7.89-.84.59-1.32,1.22-1.74,1.18a33.71,33.71,0,0,1-15.44-4.86,28.58,28.58,0,0,1-9.33-9.71,58.77,58.77,0,0,1-6.78-16.25A52.81,52.81,0,0,1,406.41,173c.31-2.31.67-4.61.95-6.57-2.5.06-5.21.53-7.75.07s-4.83-1.84-7.5-2.93a128.3,128.3,0,0,1,15,60.46,132.43,132.43,0,0,1-14.82,60.89c4.6-3.86,9.57-4.82,15.15-2.53a64.4,64.4,0,0,1-1-7c-.16-4.41-.22-8.84,0-13.24.37-7.34,3.26-13.93,6.53-20.36,4.61-9,12-14.45,21.88-16.47A21,21,0,0,1,439,225c.45,0,.9.56,1.22,1.06-6.39,1.18-12,3.45-16.57,8a11.78,11.78,0,0,1,9,1.07c3.45,2,5.87,5.79,4.34,10.53a8.33,8.33,0,0,1-9.09,6.1c-3.37-.31-7.74-4.38-6.76-7.81a25.6,25.6,0,0,1,1.88,2.16c1.6,2.31,5.24,3,6.9,2.25,2.06-1,3.9-3.66,3.66-5.57s-2.62-4.44-4.8-5c-3.18-.81-5.82.37-8.18,2.35a19.45,19.45,0,0,0-5.71,8.24,47,47,0,0,0-3.42,17.08,3.92,3.92,0,0,0,.15,1.05c.75-4.36,2.48-8.13,6.16-10.75,5.33-3.8,14.11-2.65,16.05,4.95a7.87,7.87,0,0,1-3.65,8.11,5.86,5.86,0,0,1-7.57-1.47,7.23,7.23,0,0,1-.79-1.71l.46-.4c.81.51,1.59,1.07,2.44,1.51a3.6,3.6,0,0,0,4.5-.77,4.19,4.19,0,0,0,1-4.75c-1.43-3.58-6.09-4.86-9.82-2.17a12.24,12.24,0,0,0-5,10,26,26,0,0,0,2.39,12.24,23.35,23.35,0,0,0,3,3.9c-1.51.86-2.54-.27-3.43-1.06-2.49-2.25-3.67-5.3-4.62-8.43-.22-.72-.35-1.46-.53-2.19l-.54.14c.73,2.8,1.32,5.66,2.23,8.4a27.22,27.22,0,0,0,11,14.7,22.29,22.29,0,0,0,10.48,3.64,19.62,19.62,0,0,0,14.24-4,14.93,14.93,0,0,0,5.4-9.57,15.22,15.22,0,0,0-2.17-11.49,11,11,0,0,0-7.56-5,14.39,14.39,0,0,0-12.78,3.88c-1.42,1.3-2.1,3.4-3.08,5.15a19.75,19.75,0,0,0-.81,1.82l-.63-.09a11.7,11.7,0,0,1,0-2.84c1.59-6,5.76-9.47,11.57-10.94a49.8,49.8,0,0,1,7.28-.84,47.76,47.76,0,0,1-3.83-5.56c-3-5.85.58-12.89,5.38-14.43,5.09-1.62,9.66.37,11.08,4.79,1.23,3.82-.33,7.07-3,8.57a4,4,0,0,1-6-2.56c-.09-.56.42-1.22,1-1.81.5,1.73,1.13,2.89,3,2.36,1.36-.39,2.41-2.6,2-4.1-.49-1.76-1.35-3.24-3.32-3.53a5.69,5.69,0,0,0-5.82,2.12c-2.41,3.21-1.67,8.12,1.11,10.75a60,60,0,0,0,6.1,4.54l1.45,1.06-.21.42-2.56.19a19.1,19.1,0,0,1,7,14.34c.84-4.75,3.65-8,7.66-10.36,1.54-.9,1.8-.66,1.91,1.1.31,5-1,9.29-5.06,12.54a3.5,3.5,0,0,0-.62,1.07,22.83,22.83,0,0,1-2.19.89,17.39,17.39,0,0,1-2.17.32c-.17.77-.4,1.82-.61,2.76l4.89-.31-2.57-1.53ZM277,99.4c-5.67.52-11.4.72-17,1.64a183.94,183.94,0,0,0-19.28,4.2,108.83,108.83,0,0,0-27.41,12.06,123.41,123.41,0,0,0-21.43,16.21,126.83,126.83,0,0,0-14.92,16.82,124.58,124.58,0,0,0-14.47,25.22,106.05,106.05,0,0,0-7.2,23.37c-1.13,6.58-2,13.23-2.47,19.89a92.23,92.23,0,0,0,.36,14.67,141.64,141.64,0,0,0,2.41,17.57,121.84,121.84,0,0,0,12.79,33.6A125.07,125.07,0,0,0,185.18,308a117.17,117.17,0,0,0,22.3,19.07,131.37,131.37,0,0,0,25.12,13,138.33,138.33,0,0,0,33.77,8c1.94.22,3.58.06,3.76-2.47,0-.53.49-1,.68-1.56,2.79-7.91,3.87-16.15,4.73-24.44.08-.79.93-2.07,1.55-2.14,1.27-.16,1.44,1.06,1.52,2.17.2,2.68.36,5.37.8,8,1.07,6.5,2.33,13,4.87,19.11.45,1.07.91,1.45,1.92,1.32,3.84-.5,7.69-1,11.53-1.54a117.67,117.67,0,0,0,32.68-10.23A122.21,122.21,0,0,0,361,315.94a119.11,119.11,0,0,0,17.46-19.72,127,127,0,0,0,13-23A114.93,114.93,0,0,0,398.94,249a141.26,141.26,0,0,0,2.33-18.54A98.06,98.06,0,0,0,400.18,207c-1.14-6-2.26-12.08-3.86-18a111.2,111.2,0,0,0-10.44-25,114.71,114.71,0,0,0-17.41-24.07,178.28,178.28,0,0,0-16-14.47,111.37,111.37,0,0,0-32.82-18.18A128.4,128.4,0,0,0,277,99.4ZM297,383a64.12,64.12,0,0,1-19.71-25.51c-2.89,4.7-5.38,9.52-8.62,13.76s-7.25,7.94-10.8,11.75Zm100-225.3c2.5,0,4.34-1.59,4.38-3.78,0-1.63-1.47-2.88-3.38-2.82a5.06,5.06,0,0,0-4.38,4.6C393.58,156.94,394.84,157.69,397,157.68ZM280.15,85c0-2.38-1.15-3.81-3-3.84s-3.18,1.4-3.17,3.9c0,1.69,1.77,4.15,3,4.22S280.15,86.79,280.15,85Zm117,205.58c-.51,0-1.14-.18-1.52,0-.76.46-1.87,1.06-2,1.74-.34,2.19,2.09,4.66,4.41,4.81,1.75.11,3.42-1.42,3.24-3A4.27,4.27,0,0,0,397.19,290.57ZM157,158.28c1.38-.75,2.9-1.08,3.24-1.9s-.14-2.36-.72-3.3c-1.4-2.31-5.21-2.66-6.22-.6a3.58,3.58,0,0,0,.08,3.12C154.15,156.69,155.59,157.32,157,158.28Zm3.51,134.17c0-1-1.21-1.85-2.87-1.89-2.72-.07-4.89,1.66-4.88,3.88,0,1.43,1.34,2.58,3.14,2.7C158,297.3,160.38,294.88,160.46,292.45Z"/><path d="M54.9,472.26v-4.44H499.12v4.44Z"/><path d="M107.73,487.42V483H446.28v4.44Z"/><path d="M115.27,409h-5.21v-2.16c.46,0,1-.12,1.46-.12,6.73,0,13.46-.18,20.19.05,4.61.16,9,1.45,11.64,5.7,3.87,6.17.2,13.69-5.86,16-.76.29-1.5.62-2.37,1,1.81,3,3.55,5.81,5.31,8.66,1.63,2.65,3.24,5.31,4.95,7.91a2.68,2.68,0,0,0,1.74,1c1.6.14,3.26-.16,4.84.1,2.27.37,3.13-.79,3.83-2.63q7-18.26,14.09-36.46a1.83,1.83,0,0,1,2-1.42,1.81,1.81,0,0,1,1.93,1.39c5,12.65,10.07,25.27,15.05,37.93.54,1.38,1.48,1.15,2.46,1.13,1.5,0,2.38.46,2.13,2.33-4.77,0-9.54.06-14.31-.08-.5,0-1-1.13-1.47-1.73l.47-.46h4.41c-1.61-4.25-3.12-8.33-4.73-12.38a1.86,1.86,0,0,0-1.43-.84q-6.21-.11-12.42,0a1.85,1.85,0,0,0-1.39.91c-1.58,4-3.06,8-4.63,12.26a14.22,14.22,0,0,1,3.28.06c.71.18,1.76.93,1.8,1.49.09,1.24-1,.79-1.82.79-6.41,0-12.82-.08-19.23,0a3.5,3.5,0,0,1-3.5-2.05c-3.09-5.47-6.29-10.89-9.41-16.34A1.84,1.84,0,0,0,127.1,430c-1.61.11-3.22,0-5,0v17.09h5.24v2.22h-17.3v-2.18h5.19Zm6.88-.1v18.79c1.93,0,3.74-.06,5.54,0,4.83.19,9-2.21,10.12-7.77.76-3.76-1.33-10.05-6.33-10.55C128.44,409.09,125.36,409.07,122.15,408.92Zm48,6.24-6.29,16.3h12.64Z"/><path d="M399.29,409h-5.22v-2.29c3.19,0,6.4,0,9.61.06.41,0,.94.71,1.18,1.2,2.49,5.14,4.93,10.32,7.39,15.48q3.86,8.07,7.74,16.14c.13.28.3.54.58,1,1.92-4.24,3.78-8.29,5.58-12.35,2.32-5.23,4.59-10.48,6.88-15.71.71-1.63,1.38-3.27,2.16-4.86a1.74,1.74,0,0,1,1.17-.93c3.55-.08,7.1,0,10.75,0V409h-5.59v38c1.64.13,3.29.18,4.91.44.35.06.56.9,1,1.64a13.21,13.21,0,0,1-2,.39c-4.59,0-9.19,0-13.79,0-1.73,0-2.18-.65-1.77-2.32h5.54V414.5c-5.37,12-10.61,23.6-15.86,35.28H417.9c-4.89-10.29-9.73-20.48-14.58-30.67l-.27.06v27.72c1.62,1.08,4.74-1.26,5.48,2.58H400a24,24,0,0,0-4.07,0c-2.14.37-2.2-.67-1.83-2.34h5.15Z"/><path d="M68.53,447.1h5.6v-38c-1.24,0-2.51-.08-3.76,0-1.66.14-2.33-.44-1.77-2.35h2c6.22,0,12.43-.1,18.64,0a14.86,14.86,0,0,1,9.25,3,8.56,8.56,0,0,1,2.61,9.66A11.45,11.45,0,0,1,95,425.93a51.12,51.12,0,0,1,4.81,2.34c5.22,3.24,5.89,10.39,2.38,15.18a13.18,13.18,0,0,1-10.7,5.61c-7.16.21-14.32.26-21.47.42C68.28,449.52,68.28,448.56,68.53,447.1Zm12,0c3.18,0,6.15.1,9.11-.05a6.51,6.51,0,0,0,3-1.09A10.59,10.59,0,0,0,97,434.62c-.82-3.17-2.34-6.05-5.76-6.69s-7.08-.58-10.69-.82Zm-.08-38.39V425c2.27,0,4.28-.09,6.27,0,7,.35,9.87-6.53,7.31-12.2a5.79,5.79,0,0,0-3.42-3A89.35,89.35,0,0,0,80.44,408.74Z"/><path d="M203.79,447c5.6.44,5.6.44,5.46,2.37H194.8v-2.19H200V409.13h-5.17v-2.39a67,67,0,0,1,9.31.14c1.2.17,2.27,1.86,3.21,3q7.11,8.73,14.11,17.56c2.82,3.54,5.59,7.11,8.37,10.66.31.41.58.84.87,1.27l.41-.27v-30h-6v-2.41c4.66,0,9.3,0,13.94,0,.37,0,1.06.74,1,1-.1.47-.63,1.17-1,1.21-1.46.14-2.95.05-4.62.05v39.6c-.24.26-.27.33-.31.34-3.35.9-3.29.85-5.44-1.89-4.92-6.27-9.9-12.49-14.85-18.74-3.28-4.14-6.54-8.29-10-12.66Z"/><path d="M243.3,449.08v-1.93h5.28v-38h-5.23v-2.4c4.64,0,9.22,0,13.8,0,4.79,0,9.59-.27,14.24,1.45,7.12,2.63,11.47,7.47,12.66,15.05.84,5.36.76,10.63-2,15.46-3.5,6.1-8.77,10-15.9,10.31C258.61,449.35,251.05,449.08,243.3,449.08Zm12-1.94c2.85,0,5.5.11,8.14,0,7-.37,10.85-3.72,12.76-10.18a34.45,34.45,0,0,0,.33-17.23c-1.06-4.93-3.82-8.94-9-10-3.94-.81-8.11-.6-12.24-.85Z"/><path d="M339.53,439.39V409.11h-5.66v-2.23h14.52v2.17h-5.63v39.89l-3.47.76-27.12-34.05v31.24c1.71,1.17,4.95-1.4,5.82,2.46h-14.8v-2.16h5.56V409.11h-5.58v-2.36c3.16,0,6.41-.34,9.54.16,1.29.21,2.38,2.15,3.42,3.42q6.27,7.71,12.43,15.49c3.37,4.24,6.71,8.51,10.07,12.76A8.59,8.59,0,0,0,339.53,439.39Z"/><path d="M125.57,311.5c-3.26,4-6.14,7.63-7.53,12.4s-.37,9.37,1.06,14l-.53.23a9.5,9.5,0,0,1-1.47-1,21.86,21.86,0,0,0-14.32-5.78c-6-.35-11.23,1.73-16.48,4.08-1.06.48-2.19.79-3.28,1.18l-.33-.47a3.76,3.76,0,0,1,.6-.89c3.22-2.7,6.7-5.15,9.65-8.12a23.27,23.27,0,0,0,6.9-17.41,28.56,28.56,0,0,0-.63-3.35,5.29,5.29,0,0,1,.23-2.21C106.49,312.64,115.36,314.29,125.57,311.5Z"/><path d="M454.94,304.37c-.11,1.11-.15,2.24-.37,3.34-1.06,5.42.53,10.27,3.14,14.92,2.77,4.95,7.21,8.18,11.63,11.45.76.55,1.45,1.19,2.17,1.78l-.43.78c-1.82-.71-3.68-1.34-5.45-2.16A29.73,29.73,0,0,0,451,331.34a21.31,21.31,0,0,0-14,5.7,4.13,4.13,0,0,1-1.73,1c1-4.76,2.18-9.34.7-14.2s-4.31-8.38-7.47-12.24c4.73.67,9.32,1.77,14.1.45s8.5-4.18,11.7-7.89Z"/><path d="M296.61,30.25c-1.39.43-2.57.84-3.77,1.14C286.62,33,282.44,37,279.77,42.63c-.78,1.64-1.28,3.42-2,5.11a5.24,5.24,0,0,1-.81,1.11,5,5,0,0,1-.75-1.18,27.85,27.85,0,0,0-5.05-9.92A19.75,19.75,0,0,0,260.05,31c-.83-.2-1.64-.5-2.89-.9a7.36,7.36,0,0,1,1.56-1c6.24-1.51,10.34-5.64,13.47-10.94,2.51-4.28,3.3-9,3.69-13.88a24.49,24.49,0,0,1,.41-3.21c.09-.41.52-.74.8-1.1a4.12,4.12,0,0,1,.7,1.2c.56,3.58.88,7.21,1.63,10.75A23.64,23.64,0,0,0,284.54,22a19.9,19.9,0,0,0,10.91,7.15C295.81,29.27,296.08,29.75,296.61,30.25Z"/><path d="M119,110c-.31,1.35-.43,2.21-.7,3-2.38,7.24-.61,13.65,3.93,19.48.82,1.07,1.79,2,2.64,3.06a4.13,4.13,0,0,1,.47,1.09,5.82,5.82,0,0,1-1.17.09c-2.64-.37-5.27-1.1-7.9-1.09a18.53,18.53,0,0,0-14.69,6.5,19.32,19.32,0,0,1-2,1.81l-.5-.31a28.83,28.83,0,0,1,.41-3.5c1-4.13-.09-8-1.65-11.69-2.18-5.19-6-9.1-10.49-12.33-1.64-1.17-3.18-2.45-4.76-3.68l.34-.68c1.08.34,2.18.65,3.24,1,3.09,1.12,6.08,2.61,9.25,3.36,8.07,1.91,15.55.69,21.85-5.18A10.59,10.59,0,0,1,119,110Z"/><path d="M428.53,136.64c7.36-7.55,10.58-16,6.4-26.3l.6-.22c1.11.83,2.23,1.65,3.32,2.5,5.24,4,11.17,4.73,17.55,4,4.66-.54,8.64-2.82,12.91-4.37a14.21,14.21,0,0,1,1.85-.43l.28.55c-1.26,1-2.48,2.06-3.79,3-6,4.25-10.79,9.4-12.73,16.77a21.23,21.23,0,0,0-.15,10,3.61,3.61,0,0,1,0,1.67c-3.7-3.06-7-6.5-11.93-7.62S433.4,135.74,428.53,136.64Z"/><path d="M457.18,409H452v-2.15h32.42c0,.46.1.95.12,1.45.13,3.34.24,6.68.4,10,.06,1.27-.4,1.84-1.51,1.56-1.08-2.61-2-5.17-3.18-7.56a5.94,5.94,0,0,0-6-3.31c-3.35.13-6.7,0-10.17,0v17.06h14.12v2.35H464V447.1c4.09,0,8.25.38,12.3-.12,3.14-.39,4.36-3.44,5.44-6.15a27.92,27.92,0,0,0,.92-3.28c.28-1.08.84-1.66,1.81-1.24,0,4.1,0,8.14-.05,12.17,0,.34-.73.94-1.13.94-10.41.05-20.81,0-31.33,0v-2.29h5.2Z"/><path d="M387.89,447.06c4,.21,4,.21,4.26,2.41h-2.84c-3.63,0-7.25-.06-10.88,0-1.69,0-2.24-.57-1.77-2.3h4.47c-1.15-3-2.2-5.84-3.31-8.64-.6-1.53-.89-3.63-2-4.36s-3.26-.25-4.94-.26h-9.26l-5,12.86c1.7,1.12,4.71-1.14,5.17,2.55H349v-2c.14-.07.26-.19.36-.17,2.94.54,4.24-.83,5.27-3.58,4.13-11.07,8.56-22,12.88-33a10.62,10.62,0,0,1,.93-2.46,4,4,0,0,1,2-1.33c1-.28,1.46.2,1.89,1.28,5.06,12.76,10.23,25.47,15.36,38.2A6.2,6.2,0,0,1,387.89,447.06Zm-19.1-31.81c-2.21,5.76-4.21,11-6.23,16.21H375.1Z"/><path d="M319.36,372.43c-1.64-10.43,3.15-21.86,15-26.57C335.87,358.06,330.2,367.51,319.36,372.43Z"/><path d="M350.93,370.91c-7.86,8.58-19,10.8-30.21,5.39C327.89,368.37,338.65,365.06,350.93,370.91Z"/><path d="M219.64,345.76c11,4.78,16.34,14.17,15.26,26.56a23.2,23.2,0,0,1-9.46-6.52C220.27,360.14,219,353.28,219.64,345.76Z"/><path d="M203.27,371.12c9.94-5.53,21.81-3.83,30.08,5.1C222.61,381.57,211.63,379.72,203.27,371.12Z"/><path d="M0,385.43c5.42-.93,10.88-1.66,16.24-2.85s10.6-2.83,15.93-4.28v14.83C21.84,388.87,11,387.27,0,385.43Z"/><path d="M554.12,385.48c-10.94,1.7-21.82,3.33-32.21,7.68V377.89C532.29,382.15,543.18,383.86,554.12,385.48Z"/><path d="M50.92,385.37c0,4.39-2.93,7.38-7.21,7.37a7.47,7.47,0,0,1-7.17-7.19,7.33,7.33,0,0,1,7.26-7.23C48.08,378.52,50.92,381.15,50.92,385.37Z"/><path d="M503.16,385.36c0-4.22,2.84-6.92,7.16-7a7.22,7.22,0,0,1,7.19,7.32c0,3.47-3.41,7.21-7.15,7.11A7,7,0,0,1,503.16,385.36Z"/><path d="M367.66,368.91a13.73,13.73,0,0,1,9-11.51,30.67,30.67,0,0,1,4-1.08c.32-.06,1.15.69,1.1.94-1.24,6.54-6.86,11.64-13.36,11.77A3.69,3.69,0,0,1,367.66,368.91Z"/><path d="M186.52,369a12.41,12.41,0,0,1-7.82-2.17,14.26,14.26,0,0,1-6.29-9.42c-.07-.31.4-1.08.63-1.09C179.17,356.16,185.68,362.17,186.52,369Z"/><path d="M339.51,67c6.11-2.13,11.26-.83,15.78,3.26a13.24,13.24,0,0,1,1.42,1.8c.65.84.4,1.35-.56,1.7-5.43,2-13.14-.56-16.31-5.43A4.62,4.62,0,0,1,339.51,67Z"/><path d="M381.7,91.2c-.25.11-.7.5-1.09.46-5.59-.63-9.78-3.24-12-8.61a.71.71,0,0,1-.08-.18l-.72-3.74a27.76,27.76,0,0,1,3.78.55c5,1.47,8.11,5,9.82,9.8A10.66,10.66,0,0,1,381.7,91.2Z"/><path d="M106.07,230.29c5.84,3,7.86,13.32,3.74,18.21C103.93,243.74,102.66,236.05,106.07,230.29Z"/><path d="M443.91,199.58c6.11,4.37,7.22,11.65,4.62,17.57-.45,1-1.12,1.36-1.9.06-1.14-1.89-2.77-3.54-3.6-5.54C441.36,207.64,442,203.59,443.91,199.58Z"/><path d="M110,199.59a14.35,14.35,0,0,1-2.84,17.85c-1.15,1.05-1.53.22-1.87-.69C102.94,210.27,104.38,203.93,110,199.59Z"/><path d="M214.49,67c0,2.06-1.76,2.9-3,4-3.9,3.47-8.52,4-13.46,2.79-1.28-.32-1.37-.91-.58-1.89C201.88,66.44,207.77,64.68,214.49,67Z"/><path d="M123.14,354.3l1.61-1.62,2.32-1.58c2.28,3.94,1.3,11.19-1.89,14.57-.84.9-1.72,1.76-2.61,2.61-1.22,1.17-1.73,1-2.09-.64C119.43,362.82,120,358.3,123.14,354.3Z"/><path d="M429.32,352.68l1.61,1.62a15.43,15.43,0,0,1,2.67,13.35c-.38,1.66-.8,1.72-2.11.64-4.23-3.47-6.24-7.86-5.63-13.34.14-1.28.5-2.53.82-4.08Z"/><path d="M241.75,27.25c.1,1.16.19,2.31.28,3.52-7.38-.9-12.23-6.55-12.74-14.09a12.69,12.69,0,0,1,7.54,3.08c2.55,1.94,3.73,4.75,5,7.55Z"/><path d="M430.91,93.93c-.54.53-1.07,1.07-1.61,1.61l-2.36,1.57a13.82,13.82,0,0,1-1.05-2.88,15.1,15.1,0,0,1,6-14.67c1.21-1,1.51.1,1.66.83.93,4.3.76,8.46-1.9,12.23C431.38,93,431.16,93.49,430.91,93.93Z"/><path d="M186.71,79.32c-.43,1.19-.85,2.39-1.28,3.57-2,5.43-6.18,7.89-11.63,8.79-1.67.28-1.52-.54-1.26-1.53a14.08,14.08,0,0,1,12.67-11,8.57,8.57,0,0,0,.88-.18Z"/><path d="M448,230.29a14.14,14.14,0,0,1-3.7,18.19C440.15,243.87,442.17,233.25,448,230.29Z"/><path d="M88.2,156.09l1.61.44,2.09,1.1c-3,5.62-12.87,8-18.37,3.75A15.73,15.73,0,0,1,84,155.79,19.81,19.81,0,0,1,88.2,156.09Z"/><path d="M464.33,156.51l1.55-.42a48,48,0,0,1,5.63.07,14.44,14.44,0,0,1,9.05,5.19c-5.6,4.21-14.77,2.08-18.5-3.64Z"/><path d="M124.78,95.54l-1.62-1.61c-.33-.52-.66-1-1-1.56a15.41,15.41,0,0,1-1.63-12.13c.27-1.12.87-1.34,1.9-.46,4.1,3.49,6.4,7.73,5.76,13.24a41,41,0,0,1-.94,4.16Z"/><path d="M293.06,279.56v-3.67h9.55V165.72l-.38-.1c-.49,1.9-1,3.78-1.46,5.69-1.33,5.8-2.61,11.62-3.94,17.42q-3.46,15-7,29.94c-2.16,9.18-4.4,18.34-6.55,27.52q-3.76,16.08-7.39,32.19c-.25,1.15-.7,1.31-1.65,1.31-7,0-14,0-21.16,0Q237.54,222.47,222,165.28l-.37.06V275.76h9.44v3.91H207c-.1-.17-.21-.28-.22-.39-.19-3.48-.19-3.48,3.33-3.48h6.25V158.92h-9.5v-3.47H255.1l23.38,90.63c3-13.12,5.78-25.71,8.7-38.28,1.95-8.38,4.11-16.71,6.09-25.09q3-12.84,5.87-25.72c.31-1.44.95-1.66,2.21-1.66,14,0,28,0,42,0h1c3.2,0,3.2,0,3,3.44h-9.6v117h7.05c2.67,0,2.67,0,2.64,2.65,0,.32,0,.64-.06,1.11Z"/></g></g></svg>